<?xml version="1.0" standalone="no"?>
<!DOCTYPE svg PUBLIC "-//W3C//DTD SVG 20010904//EN"
 "http://www.w3.org/TR/2001/REC-SVG-20010904/DTD/svg10.dtd">
<svg version="1.0" xmlns="http://www.w3.org/2000/svg"
 width="500.000000pt" height="500.000000pt" viewBox="0 0 500.000000 500.000000"
 preserveAspectRatio="xMidYMid meet">

<g transform="translate(0.000000,500.000000) scale(0.100000,-0.100000)"
fill="#000000" stroke="none">
<path d="M1922 3996 c-29 -7 -74 -27 -101 -44 l-50 -30 -63 26 c-56 24 -75 27
-178 26 -95 0 -125 -4 -172 -23 -131 -51 -253 -164 -281 -260 -13 -41 -17 -45
-78 -69 -140 -55 -267 -163 -317 -270 -21 -45 -27 -76 -30 -144 l-4 -87 -38
-26 c-197 -137 -261 -464 -128 -657 l19 -28 -30 -44 c-98 -142 -75 -376 55
-546 71 -94 169 -166 264 -196 68 -21 80 -30 80 -60 0 -38 40 -135 81 -195 97
-144 312 -246 500 -238 54 2 61 0 97 -33 172 -155 396 -167 595 -31 79 53 133
120 177 216 l30 67 0 314 c0 216 3 317 11 322 6 3 39 -25 75 -65 48 -51 82
-79 129 -101 l63 -30 874 0 c840 0 875 1 926 19 92 34 160 94 210 186 l27 50
3 700 c3 781 5 756 -67 851 -39 53 -121 108 -186 125 -27 8 -312 11 -900 11
-778 -1 -866 -2 -910 -18 -81 -27 -148 -83 -203 -169 -22 -35 -26 -37 -32 -20
-4 11 -10 67 -14 124 -9 127 -33 195 -89 253 -49 51 -99 76 -182 94 -73 16
-95 16 -163 0z m184 -125 c46 -21 83 -64 113 -131 20 -43 21 -65 21 -447 l0
-403 -43 0 c-50 0 -67 -13 -67 -50 0 -31 23 -55 62 -64 51 -12 54 -22 56 -189
l2 -155 -49 -17 c-73 -24 -156 -82 -247 -172 -66 -66 -88 -82 -121 -88 -75
-12 -116 8 -223 109 -80 76 -116 102 -192 139 -120 59 -179 71 -286 63 -84 -6
-84 -6 -78 16 34 113 6 186 -59 156 -27 -12 -32 -24 -38 -106 -4 -57 -24 -91
-71 -126 -42 -32 -145 -29 -212 7 -106 55 -154 146 -154 297 0 67 5 91 27 138
25 53 128 172 148 172 6 0 23 -20 38 -45 27 -42 80 -95 96 -95 17 0 51 43 51
65 0 13 -19 46 -45 76 -70 82 -94 185 -60 265 18 43 91 131 114 137 14 3 17
-3 16 -37 0 -22 5 -41 10 -41 25 0 54 -34 60 -68 5 -24 12 -36 20 -34 6 3 18
1 26 -4 10 -6 10 -9 2 -9 -23 0 -14 -19 12 -26 14 -3 31 -14 38 -24 6 -9 19
-19 27 -23 12 -4 11 -6 -2 -6 -10 -1 -18 -9 -18 -18 0 -11 3 -14 8 -7 11 17
40 24 45 11 2 -6 -2 -18 -10 -25 -20 -21 -16 -59 10 -77 55 -39 155 -99 187
-113 40 -17 168 -41 220 -42 61 -1 99 -49 130 -166 21 -78 38 -107 73 -126 27
-14 67 15 67 50 0 35 -31 118 -77 208 -42 81 -45 66 38 169 71 89 101 162 109
267 7 93 7 93 -27 149 -18 31 -40 76 -48 99 -18 50 -20 157 -4 211 15 49 61
104 107 129 49 25 143 26 198 1z m-866 -417 c0 -8 -19 -13 -24 -6 -3 5 1 9 9
9 8 0 15 -2 15 -3z m2140 -297 c298 -190 507 -329 533 -353 15 -14 27 -36 27
-48 0 -12 -12 -34 -27 -48 -24 -22 -232 -155 -498 -318 -33 -21 -82 -51 -109
-69 -56 -35 -91 -39 -118 -14 -17 15 -18 42 -18 454 l0 438 22 15 c39 28 69
18 188 -57z m-2134 -21 c0 -16 -4 -22 -14 -19 -11 5 -11 7 0 14 7 5 9 9 5 9
-5 0 -5 5 -2 10 9 15 11 12 11 -14z m227 -143 c-7 -2 -19 -2 -25 0 -7 3 -2 5
12 5 14 0 19 -2 13 -5z m-178 -657 c83 -22 155 -65 220 -130 92 -92 147 -135
199 -152 40 -14 46 -20 46 -43 0 -71 -63 -205 -121 -257 -28 -25 -92 -57 -83
-42 5 8 1 9 -12 3 -30 -12 -64 -7 -100 16 -19 12 -34 16 -34 10 0 -7 7 -14 15
-17 18 -7 20 -22 3 -21 -42 1 -51 -3 -38 -18 7 -9 10 -19 6 -23 -4 -4 -14 2
-22 12 -11 15 -11 22 -1 34 8 11 3 9 -17 -3 -28 -18 -28 -19 -6 -27 16 -6 20
-13 15 -30 -5 -19 -4 -20 5 -8 10 13 11 13 7 0 -2 -8 -10 -15 -18 -15 -18 0
-18 -47 0 -53 10 -3 12 0 8 12 -9 23 0 20 14 -5 7 -13 7 -19 1 -15 -6 3 -13 2
-17 -4 -3 -5 -16 -10 -28 -9 -12 0 -16 3 -9 6 9 3 7 10 -9 24 -24 21 -47 15
-28 -7 9 -11 9 -14 -1 -14 -7 0 -10 -8 -7 -19 3 -14 1 -18 -9 -14 -8 3 -14 -1
-14 -11 0 -9 -4 -16 -10 -16 -5 0 -10 9 -10 19 0 11 5 23 10 26 15 9 12 25 -4
25 -13 0 -28 -22 -30 -45 -2 -10 -20 -11 -68 -1 -20 4 -28 1 -28 -8 0 -15 -24
-28 -34 -19 -3 4 -6 15 -6 26 0 10 -5 17 -12 15 -7 -3 -12 -17 -13 -33 0 -22
-5 -29 -25 -31 -14 -1 -20 0 -13 2 7 3 9 12 6 21 -4 9 -2 14 3 10 6 -3 11 4
11 16 l2 22 -18 -22 c-10 -12 -21 -19 -25 -16 -9 9 -7 25 2 19 4 -2 13 4 20
14 7 12 8 21 2 25 -6 3 -10 15 -10 26 0 10 -4 19 -9 19 -5 0 -7 -10 -3 -22 3
-14 2 -19 -6 -14 -19 11 -14 45 8 58 22 14 27 30 9 26 -6 -2 -14 3 -17 11 -2
8 -1 11 4 8 5 -3 10 7 11 21 0 14 9 31 18 38 9 7 16 16 16 21 -2 17 40 63 51
57 7 -4 8 -3 4 4 -6 10 90 82 110 82 17 0 44 35 44 56 0 51 -53 68 -116 38
-52 -25 -160 -129 -206 -201 -42 -63 -44 -65 -80 -60 -54 7 -124 45 -185 101
-98 89 -143 193 -143 328 0 69 5 98 21 133 l21 44 61 -32 c58 -30 68 -32 162
-31 91 0 108 3 190 37 80 32 100 36 180 37 50 0 113 -6 140 -14z m873 -91 c-3
-3 -9 2 -12 12 -6 14 -5 15 5 6 7 -7 10 -15 7 -18z m-41 -10 c0 -8 -4 -12 -8
-10 -4 3 -10 -2 -13 -10 -3 -8 -11 -14 -18 -13 -7 2 -12 -2 -13 -9 0 -16 -12
-26 -19 -15 -3 5 3 17 14 27 11 10 20 14 20 9 0 -5 7 2 16 14 18 26 21 27 21
7z m-67 -87 c0 -6 -6 -5 -15 2 -8 7 -15 14 -15 16 0 2 7 1 15 -2 8 -4 15 -11
15 -16z m-30 -12 c0 -2 -7 -7 -16 -10 -8 -3 -12 -2 -9 4 6 10 25 14 25 6z
m-30 -30 c0 -2 -8 -10 -17 -17 -16 -13 -17 -12 -4 4 13 16 21 21 21 13z m-117
-76 c-3 -12 -8 -19 -11 -16 -5 6 5 36 12 36 2 0 2 -9 -1 -20z m-393 -340 c0
-5 -17 -9 -37 -9 l-38 2 35 7 c19 4 36 8 38 9 1 0 2 -3 2 -9z m-390 -225 c0
-8 -2 -15 -4 -15 -2 0 -6 7 -10 15 -3 8 -1 15 4 15 6 0 10 -7 10 -15z m-27
-54 c7 -14 19 -25 26 -23 7 1 9 -2 5 -9 -5 -9 -18 0 -41 27 -34 40 -44 66 -18
44 8 -7 21 -24 28 -39z m87 -17 c0 -2 -9 -8 -20 -14 -15 -8 -18 -8 -14 3 4 11
34 21 34 11z"/>
<path d="M873 3395 c4 -8 2 -17 -3 -20 -4 -3 -10 0 -12 7 -3 8 -6 6 -10 -4 -4
-10 -2 -15 8 -14 17 3 42 26 29 26 -6 0 -3 5 5 10 13 8 12 10 -4 10 -12 0 -16
-5 -13 -15z"/>
<path d="M1046 1733 c-6 -14 -5 -15 5 -6 7 7 10 15 7 18 -3 3 -9 -2 -12 -12z"/>
<path d="M1238 1633 c7 -3 16 -2 19 1 4 3 -2 6 -13 5 -11 0 -14 -3 -6 -6z"/>
<path d="M1150 1586 c0 -8 7 -17 16 -20 30 -11 37 -6 19 14 -21 23 -35 26 -35
6z"/>
</g>
</svg>
